<?xml version="1.0" encoding="iso-8859-1"?>
<!-- Generator: Adobe Illustrator 19.0.0, SVG Export Plug-In . SVG Version: 6.00 Build 0)  -->
<svg version="1.1" id="Capa_1" xmlns="http://www.w3.org/2000/svg" xmlns:xlink="http://www.w3.org/1999/xlink" x="0px" y="0px"
	 viewBox="0 0 512 512" style="enable-background:new 0 0 512 512;" xml:space="preserve">
<g>
	<g>
		<path d="M496.882,375.806c8.349,0,15.118-6.769,15.118-15.118V15.118C512,6.769,505.231,0,496.882,0h-79.521
			c-4.952,0-9.589,2.424-12.414,6.49c-2.825,4.066-3.481,9.258-1.755,13.899c1.678,4.511,2.529,9.245,2.529,14.071
			c0,22.191-18.053,40.244-40.244,40.244c-22.185,0-40.234-18.053-40.234-40.244c0-4.846,0.849-9.573,2.521-14.05
			c1.736-4.641,1.084-9.839-1.742-13.911C323.196,2.428,318.556,0,313.6,0H15.118C6.769,0,0,6.769,0,15.118v481.764
			C0,505.231,6.769,512,15.118,512h215.997c6.347,0,12.017-3.964,14.198-9.924c9.059-24.761,32.873-41.397,59.257-41.397
			c26.378,0,50.187,16.636,59.245,41.396c2.18,5.961,7.851,9.925,14.198,9.925h118.869c8.349,0,15.118-6.769,15.118-15.118v-38.38
			c0-8.349-6.769-15.118-15.118-15.118c-18.628,0-33.784-15.155-33.784-33.784C463.098,390.966,478.254,375.806,496.882,375.806z
			 M82.988,153.398c0-19.916,16.146-36.062,36.062-36.062c19.926,0,36.062,16.146,36.062,36.062s-16.136,36.062-36.062,36.062
			C99.134,189.46,82.988,173.314,82.988,153.398z M159.073,401.537c-19.916,0-36.062-16.146-36.062-36.062
			s16.146-36.062,36.062-36.062s36.062,16.146,36.062,36.062S178.988,401.537,159.073,401.537z M328.123,322.973
			c-39.831,0-72.123-32.292-72.123-72.123c0-39.831,32.292-72.123,72.123-72.123s72.123,32.292,72.123,72.123
			C400.247,290.681,367.955,322.973,328.123,322.973z"/>
	</g>
</g>
<g>
</g>
<g>
</g>
<g>
</g>
<g>
</g>
<g>
</g>
<g>
</g>
<g>
</g>
<g>
</g>
<g>
</g>
<g>
</g>
<g>
</g>
<g>
</g>
<g>
</g>
<g>
</g>
<g>
</g>
</svg>
