<?xml version="1.0" encoding="iso-8859-1"?>
<!-- Generator: Adobe Illustrator 19.0.0, SVG Export Plug-In . SVG Version: 6.00 Build 0)  -->
<svg version="1.1" id="Capa_1" xmlns="http://www.w3.org/2000/svg" xmlns:xlink="http://www.w3.org/1999/xlink" x="0px" y="0px"
	 viewBox="0 0 512 512" style="enable-background:new 0 0 512 512;" xml:space="preserve">
<g>
	<g>
		<path d="M284.114,261.765c-19.359,0-35.109-15.75-35.109-35.109c0-68.65-55.851-124.502-124.502-124.502S0,158.005,0,226.656
			c0,75.889,29.553,147.236,83.215,200.898c53.661,53.662,125.009,83.215,200.899,83.215c68.65,0,124.502-55.851,124.502-124.502
			S352.764,261.765,284.114,261.765z"/>
	</g>
</g>
<g>
	<g>
		<path d="M438.802,1.231c-40.361,0-73.198,32.837-73.198,73.198c0,6.5-5.289,11.79-11.79,11.79
			c-40.361,0-73.198,32.837-73.198,73.198c0,40.362,32.837,73.198,73.198,73.198C441.038,232.615,512,161.653,512,74.429
			C512,34.068,479.163,1.231,438.802,1.231z"/>
	</g>
</g>
<g>
</g>
<g>
</g>
<g>
</g>
<g>
</g>
<g>
</g>
<g>
</g>
<g>
</g>
<g>
</g>
<g>
</g>
<g>
</g>
<g>
</g>
<g>
</g>
<g>
</g>
<g>
</g>
<g>
</g>
</svg>
